<svg width="100" height="100" viewBox="0 0 100 100" fill="none" xmlns="http://www.w3.org/2000/svg">
<g id="cookies-svgrepo-com 1">
<g id="Cookie">
<path id="Vector" d="M92.8242 48.5377L88.1642 49.4694C86.6135 49.7795 85.0549 48.9731 84.4126 47.5282L79.421 36.2991C78.9985 35.3484 78.1615 34.6456 77.1522 34.3931L74.5517 33.7433C73.047 33.3672 71.9915 32.0157 71.9915 30.4649V12.4467C71.9915 11.6047 71.677 10.7929 71.1097 10.1705L64.8314 3.28252C59.1709 1.49038 53.0691 0.690878 46.7253 1.10853C22.3435 2.71442 2.59207 22.5441 1.10433 46.9279C-0.631524 75.382 21.9359 99 50.021 99C76.8089 99 98.5632 77.5099 99.0105 50.8343L94.9989 48.829C94.3265 48.4927 93.5613 48.3903 92.8242 48.5377Z" fill="#934F00"/>
<g id="Group">
<path id="Vector_2" d="M65.2311 83.793C64.9336 83.793 64.6405 83.7759 64.3444 83.7706C62.4873 85.8533 59.7914 87.1723 56.781 87.1723C52.3471 87.1723 48.5879 84.3222 47.21 80.3586C41.1452 77.9589 35.6747 74.3888 31.0773 69.9199C30.3818 70.1294 29.6595 70.2757 28.8956 70.2757C24.6954 70.2757 21.2905 66.8715 21.2905 62.6722C21.2905 61.2057 21.7255 59.8484 22.445 58.687C22.3935 58.5949 22.3385 58.5055 22.2874 58.4131C17.0121 58.0555 12.8406 53.6752 12.8406 48.3103C12.8406 45.1484 14.2891 42.3261 16.558 40.4668C16.343 38.6043 16.2206 36.7135 16.2206 34.793C16.2206 25.1559 19.0146 16.1764 23.8205 8.59826C10.1156 17.2858 1.01053 32.5751 1.01053 50C1.01053 77.062 22.9533 99 50.021 99C67.4496 99 82.7421 89.8969 91.4317 76.1949C83.8519 80.9998 74.8705 83.793 65.2311 83.793Z" fill="#663700"/>
<path id="Vector_3" d="M39.036 41.5517C41.3694 41.5517 43.261 39.6605 43.261 37.3276C43.261 34.9946 41.3694 33.1034 39.036 33.1034C36.7026 33.1034 34.8109 34.9946 34.8109 37.3276C34.8109 39.6605 36.7026 41.5517 39.036 41.5517Z" fill="#663700"/>
<path id="Vector_4" d="M83.8214 69.431C86.1549 69.431 88.0465 67.5398 88.0465 65.2069C88.0465 62.8739 86.1549 60.9827 83.8214 60.9827C81.488 60.9827 79.5964 62.8739 79.5964 65.2069C79.5964 67.5398 81.488 69.431 83.8214 69.431Z" fill="#663700"/>
<path id="Vector_5" d="M45.3734 69.431C47.0068 69.431 48.3309 68.1072 48.3309 66.4741C48.3309 64.8411 47.0068 63.5173 45.3734 63.5173C43.7401 63.5173 42.416 64.8411 42.416 66.4741C42.416 68.1072 43.7401 69.431 45.3734 69.431Z" fill="#663700"/>
<path id="Vector_6" d="M68.1888 42.3964C69.8222 42.3964 71.1463 41.0726 71.1463 39.4396C71.1463 37.8065 69.8222 36.4827 68.1888 36.4827C66.5554 36.4827 65.2313 37.8065 65.2313 39.4396C65.2313 41.0726 66.5554 42.3964 68.1888 42.3964Z" fill="#663700"/>
<path id="Vector_7" d="M56.3587 16.2068C57.9921 16.2068 59.3162 14.883 59.3162 13.25C59.3162 11.617 57.9921 10.2932 56.3587 10.2932C54.7253 10.2932 53.4012 11.617 53.4012 13.25C53.4012 14.883 54.7253 16.2068 56.3587 16.2068Z" fill="#663700"/>
</g>
<g id="Group_2">
<path id="Vector_8" d="M47.5617 44.5231L45.608 47.7787C44.4402 49.7246 45.4847 52.2454 47.6865 52.7957L53.5019 54.2492C55.313 54.7019 57.1482 53.6011 57.6008 51.7904L58.2661 49.1299C58.4007 48.5916 58.4007 48.0289 58.2661 47.4907L57.5627 44.6776C57.1253 42.9275 55.39 41.8296 53.6208 42.1834L49.7972 42.9478C48.8634 43.1348 48.0518 43.7068 47.5617 44.5231Z" fill="#643011"/>
<path id="Vector_9" d="M57.3165 65.4413L55.2789 68.8365C54.266 70.5245 54.9047 72.7174 56.6656 73.5977L63.1522 76.8403C65.0862 77.8073 67.4184 76.7347 67.943 74.6374L68.6111 71.9654L69.392 68.8418C69.8781 66.8979 68.5751 64.9603 66.5908 64.6768L60.6925 63.8343C59.3466 63.6421 58.0161 64.2755 57.3165 65.4413Z" fill="#643011"/>
<path id="Vector_10" d="M21.7554 45.2834L19.2687 49.4271C18.4707 50.7568 18.6804 52.4588 19.777 53.5554L23.6905 57.4683C25.1151 58.8925 27.4615 58.7626 28.72 57.1898L32.0752 52.9967C32.7341 52.1732 32.9707 51.0893 32.7148 50.066L31.9496 47.0058C31.6327 45.7387 30.6142 44.7679 29.3334 44.5116L25.3165 43.7085C23.9159 43.4283 22.4903 44.0587 21.7554 45.2834Z" fill="#643011"/>
<path id="Vector_11" d="M35.5162 17.8474L33.5987 21.0427C32.4862 22.8965 33.3768 25.3036 35.4281 25.9873L39.5893 27.3741C40.8038 27.7787 42.1428 27.4627 43.0481 26.5577L45.2879 24.3184C46.1274 23.4791 46.4649 22.2608 46.177 21.1093L45.5911 18.7667C45.2149 17.2621 43.8629 16.2066 42.3118 16.2066H38.4143C37.2274 16.2068 36.1271 16.8297 35.5162 17.8474Z" fill="#643011"/>
<path id="Vector_12" d="M76.3376 43.965L74.3812 45.9209C73.0613 47.2405 73.0613 49.3802 74.3812 50.7L75.3386 51.6572C76.3674 52.6858 77.9388 52.9408 79.2403 52.2902L84.7764 49.5228C86.1933 48.8144 86.9282 47.2173 86.544 45.6807L86.2932 44.6779C85.8557 42.9279 84.1205 41.83 82.3513 42.1837L78.065 43.0409C77.4104 43.1714 76.8095 43.4931 76.3376 43.965Z" fill="#643011"/>
<path id="Vector_13" d="M63.7696 19.8451L61.5249 22.8375C60.7004 23.9366 60.6236 25.4257 61.3306 26.6038L63.4076 30.0646C64.4005 31.7192 66.5751 32.208 68.1808 31.1379L72.3984 28.3267C74.013 27.2506 74.3917 25.0393 73.2275 23.4874L70.9347 20.431C70.5222 19.8811 69.9519 19.4699 69.2996 19.2527L67.5425 18.667C66.1622 18.2067 64.6424 18.6813 63.7696 19.8451Z" fill="#643011"/>
<path id="Vector_14" d="M34.8458 73.2339L32.6388 75.992C31.2219 77.7627 31.917 80.3984 34.023 81.2408L36.9875 82.4263C37.7935 82.7487 38.6924 82.7487 39.4982 82.4263L42.8251 81.0957C44.8185 80.2987 45.5732 77.8695 44.3824 76.0835L43.8109 75.2266C43.4845 74.7372 43.0363 74.3417 42.5102 74.0785L38.9971 72.3224C37.571 71.6098 35.8413 71.9897 34.8458 73.2339Z" fill="#643011"/>
</g>
<g id="Group_3">
<path id="Vector_15" d="M27.8846 57.0669L23.971 53.1542C22.8744 52.0578 22.6646 50.3556 23.4627 49.0261L25.9494 44.8824C26.1615 44.529 26.4418 44.2421 26.7518 43.9956L25.3167 43.7089C23.9161 43.4288 22.4903 44.0593 21.7554 45.2838L19.2687 49.4275C18.4707 50.7572 18.6804 52.4592 19.777 53.5558L23.6905 57.4685C25.0109 58.7886 27.1126 58.7568 28.4164 57.4951C28.2296 57.3713 28.0496 57.2321 27.8846 57.0669Z" fill="#401E0D"/>
<path id="Vector_16" d="M42.9745 26.1711L38.8133 24.7845C36.7622 24.1008 35.8712 21.6937 36.9839 19.8399L38.9014 16.6446C38.9989 16.4819 39.1277 16.3481 39.2485 16.2068H38.4142C37.227 16.2068 36.1268 16.8297 35.5159 17.8476L33.5983 21.0427C32.4856 22.8965 33.3762 25.3036 35.4278 25.9873L39.5889 27.3741C40.8034 27.7787 42.1424 27.4627 43.0478 26.5577L43.3627 26.2428C43.2333 26.216 43.102 26.2136 42.9745 26.1711Z" fill="#401E0D"/>
<path id="Vector_17" d="M56.7089 53.2776L50.8935 51.8241C48.6914 51.2736 47.6469 48.753 48.8149 46.8072L50.7686 43.5515C51.0012 43.1639 51.3102 42.8368 51.6665 42.5744L49.7972 42.9482C48.8635 43.1348 48.0516 43.7069 47.5617 44.5235L45.608 47.7791C44.4402 49.7249 45.4847 52.2458 47.6865 52.7961L53.5019 54.2496C54.727 54.5558 55.9523 54.1401 56.7638 53.2859C56.7454 53.2813 56.7272 53.2822 56.7089 53.2776Z" fill="#401E0D"/>
<path id="Vector_18" d="M66.5647 29.7724L64.4877 26.3116C63.7807 25.1335 63.8575 23.6447 64.6821 22.5453L66.9268 19.553C67.1726 19.2251 67.4778 18.9683 67.8086 18.7552L67.5423 18.6666C66.1619 18.2067 64.6422 18.6813 63.7692 19.8449L61.5247 22.8372C60.7002 23.9364 60.6234 25.4254 61.3304 26.6035L63.4074 30.0643C64.397 31.7132 66.5598 32.2023 68.1637 31.1463C67.521 30.8789 66.952 30.4176 66.5647 29.7724Z" fill="#401E0D"/>
<path id="Vector_19" d="M78.0512 51.4321C76.7312 50.1124 76.7312 47.9728 78.0512 46.6531L80.0076 44.6971C80.4793 44.2255 81.0803 43.9037 81.7349 43.773L85.3427 43.0516C84.5708 42.3181 83.4686 41.96 82.3511 42.1835L78.0648 43.0407C77.4104 43.1716 76.8095 43.4931 76.3376 43.9648L74.3812 45.9208C73.0613 47.2405 73.0613 49.38 74.3812 50.6998L75.3386 51.657C76.3037 52.6219 77.7395 52.8747 78.9885 52.3696L78.0512 51.4321Z" fill="#401E0D"/>
<path id="Vector_20" d="M60.8527 73.3142C59.0918 72.434 58.4529 70.241 59.4661 68.553L61.5036 65.158C61.7709 64.713 62.1486 64.3756 62.5652 64.102L60.6929 63.8347C59.3466 63.6423 58.0162 64.2755 57.3167 65.4413L55.2791 68.8365C54.2662 70.5245 54.9048 72.7174 56.6658 73.5977L63.1524 76.8403C64.4452 77.4867 65.9043 77.2077 66.8938 76.3345L60.8527 73.3142Z" fill="#401E0D"/>
<path id="Vector_21" d="M40.3675 81.8615L37.403 80.6759C35.2972 79.8339 34.6021 77.1979 36.0188 75.4272L38.2258 72.669C38.3659 72.4939 38.5233 72.3407 38.6895 72.2006C37.3291 71.6798 35.7714 72.0768 34.8458 73.2338L32.6388 75.992C31.2219 77.7627 31.917 80.3984 34.0229 81.2407L36.9875 82.4263C37.7935 82.7486 38.6923 82.7486 39.4982 82.4263L40.6807 81.9533C40.576 81.9229 40.4694 81.9022 40.3675 81.8615Z" fill="#401E0D"/>
</g>
<path id="Vector_22" d="M14.5286 70.2741C14.2753 70.2741 14.0169 70.2165 13.7745 70.0959C12.9394 69.6785 12.6009 68.6638 13.0187 67.8289L14.7088 64.4496C15.1265 63.6147 16.1389 63.2798 16.9763 63.694C17.8114 64.1116 18.1498 65.1261 17.7321 65.961L16.042 69.3403C15.7458 69.9325 15.1493 70.2741 14.5286 70.2741Z" fill="#C98850"/>
<path id="Vector_23" d="M44.9509 92.2413H43.2608C42.3275 92.2413 41.5707 91.4856 41.5707 90.5515C41.5707 89.6177 42.3275 88.8618 43.2608 88.8618H44.9509C45.8842 88.8618 46.641 89.6175 46.641 90.5515C46.641 91.4856 45.8842 92.2413 44.9509 92.2413Z" fill="#925F4A"/>
<path id="Vector_24" d="M38.1892 60.1378C37.9359 60.1378 37.6775 60.0802 37.4351 59.9596C36.6 59.542 36.2615 58.5273 36.6792 57.6926L38.3693 54.3133C38.7861 53.4802 39.7987 53.1435 40.6368 53.5577C41.4719 53.9753 41.8104 54.9898 41.3927 55.8247L39.7026 59.204C39.4064 59.7964 38.8097 60.1378 38.1892 60.1378Z" fill="#C98850"/>
<g id="Group_4">
<path id="Vector_25" d="M28.0492 33.1034C27.7959 33.1034 27.5375 33.0458 27.2951 32.9252L23.9151 31.2355C23.08 30.8178 22.7415 29.8034 23.1593 28.9685C23.576 28.1353 24.5894 27.7969 25.4268 28.2128L28.8068 29.9023C29.6419 30.32 29.9803 31.3344 29.5626 32.1694C29.2664 32.7618 28.6697 33.1034 28.0492 33.1034Z" fill="#925F4A"/>
<path id="Vector_26" d="M48.3311 9.4481H44.9511C44.0178 9.4481 43.261 8.69243 43.261 7.75836C43.261 6.8243 44.0178 6.06863 44.9511 6.06863H48.3311C49.2644 6.06863 50.0212 6.8243 50.0212 7.75836C50.0212 8.69243 49.2644 9.4481 48.3311 9.4481Z" fill="#925F4A"/>
</g>
<path id="Vector_27" d="M55.0928 34.793C54.4722 34.793 53.8756 34.4515 53.5795 33.8591L51.8894 30.4798C51.4716 29.6449 51.8101 28.6301 52.6452 28.2128C53.482 27.7969 54.4961 28.1353 54.9127 28.9685L56.6028 32.3477C57.0205 33.1827 56.6821 34.1975 55.847 34.6148C55.6042 34.7353 55.3461 34.793 55.0928 34.793Z" fill="#C98850"/>
<g id="Group_5">
<path id="Vector_28" d="M8.71267 43.0667C8.48542 42.9547 8.27923 42.7888 8.11478 42.5734C7.55001 41.83 7.69532 40.7702 8.43909 40.2057L11.449 37.9211C12.192 37.3563 13.2513 37.5029 13.8172 38.2454C14.382 38.9888 14.2367 40.0486 13.4929 40.6131L10.4832 42.8975C9.95535 43.2979 9.2692 43.3408 8.71267 43.0667Z" fill="#925F4A"/>
<path id="Vector_29" d="M71.9914 61.8276C71.5589 61.8276 71.1264 61.6626 70.7965 61.3326L67.4165 57.9533C66.7564 57.2933 66.7564 56.224 67.4165 55.564C68.0767 54.904 69.1463 54.904 69.8064 55.564L73.1864 58.9433C73.8465 59.6032 73.8465 60.6726 73.1864 61.3326C72.8561 61.6626 72.4236 61.8276 71.9914 61.8276Z" fill="#925F4A"/>
</g>
<path id="Vector_30" d="M75.3713 78.7241C74.9388 78.7241 74.5064 78.5592 74.1765 78.2292C73.5164 77.5692 73.5164 76.4998 74.1765 75.8398L75.8666 74.1501C76.5267 73.4901 77.5963 73.4901 78.2564 74.1501C78.9165 74.8101 78.9165 75.8795 78.2564 76.5394L76.5663 78.2292C76.2361 78.5592 75.8038 78.7241 75.3713 78.7241Z" fill="#C98850"/>
</g>
<g id="Crumbs">
<g id="Group_6">
<path id="Vector_31" d="M78.7347 7.75856V12.0216C78.7347 13.2171 79.9419 14.0344 81.0518 13.5903L86.1209 11.5628C86.7623 11.3061 87.183 10.6848 87.183 9.99399V7.75856C87.183 6.82545 86.4263 6.06882 85.4932 6.06882H80.4242C79.4913 6.06882 78.7347 6.82545 78.7347 7.75856Z" fill="#934F00"/>
<path id="Vector_32" d="M82.3471 21.0793L81.2689 28.6272C81.0153 30.4027 82.193 32.0672 83.9515 32.4188L87.0459 33.0376C88.3888 33.3063 89.7608 32.7378 90.5205 31.5984L91.6843 29.8528C92.287 28.9484 92.4183 27.8093 92.0367 26.7918L88.5115 17.3916C88.073 16.2225 86.5733 15.8977 85.6904 16.7807L83.3032 19.1677C82.786 19.6847 82.4506 20.3556 82.3471 21.0793Z" fill="#934F00"/>
</g>
<g id="Group_7">
<path id="Vector_33" d="M90.818 30.0361L87.7235 29.4173C85.9648 29.0655 84.7873 27.401 85.0409 25.6258L86.1191 18.078C86.2154 17.4049 86.5293 16.7901 86.986 16.2897C86.5274 16.2666 86.0565 16.4141 85.6904 16.7801L83.303 19.1673C82.786 19.6843 82.4504 20.3552 82.3473 21.0789L81.2691 28.6266C81.0155 30.4023 82.1932 32.0666 83.9516 32.4182L87.0461 33.037C88.3888 33.3054 89.761 32.7373 90.5207 31.5978L91.5388 30.0708C91.2992 30.0756 91.0593 30.0846 90.818 30.0361Z" fill="#663700"/>
<path id="Vector_34" d="M84.4311 10.2109C83.3211 10.6547 82.1139 9.83742 82.1139 8.64209V6.06882H80.4242C79.4911 6.06882 78.7345 6.82545 78.7345 7.75856V12.0216C78.7345 13.2171 79.9417 14.0344 81.0516 13.5903L86.1207 11.5628C86.7621 11.3061 87.1828 10.685 87.1828 9.99399V9.11027L84.4311 10.2109Z" fill="#663700"/>
<path id="Vector_35" d="M91.4046 37.8501L90.4059 39.8476C90.1681 40.3233 90.1681 40.8831 90.4059 41.3588L90.8616 42.2706C91.3162 43.1796 92.4644 43.4847 93.3101 42.921L96.034 41.1052C96.5041 40.7916 96.7864 40.2641 96.7864 39.6993V37.8788C96.7864 36.7256 95.6565 35.9112 94.5624 36.276L92.3814 37.0029C91.9564 37.1444 91.605 37.4491 91.4046 37.8501Z" fill="#663700"/>
</g>
</g>
</g>
</svg>
